#N canvas 532 184 883 754 10;
#X obj 20 245 hsl 200 15 -5000 5000 0 0 empty empty empty -2 -8 0 10
-204800 -1 -1 9950 1;
#X obj 21 305 hsl 200 15 1 500 0 0 empty empty empty -2 -8 0 10 -232576
-1 -1 1900 1;
#X obj 22 357 hsl 200 15 0 100 0 0 empty empty empty -2 -8 0 10 -262144
-1 -1 19900 1;
#X text 16 282 NUM LEDS;
#X floatatom 192 285 5 0 0 0 - - -;
#X floatatom 189 227 5 0 0 0 - - -;
#X text 16 224 OFFSET (ms);
#X text 17 335 MASTER OPACITY;
#X obj 274 351 list;
#X obj 317 290 list;
#X floatatom 198 340 5 0 0 0 - - -;
#X obj 274 228 list;
#X obj 275 373 oscformat /opacity;
#X obj 276 397 s osc;
#X obj 274 271 s osc;
#X obj 316 333 s osc;
#X obj 10 23 loadbang;
#X obj 22 91 bng 15 250 50 0 empty empty empty 17 7 0 10 -262144 -1
-1;
#X msg 42 130 0;
#X msg 87 124 300;
#X msg 148 122 100;
#X obj 317 312 oscformat /length;
#X obj 274 249 oscformat /nudge;
#X obj 22 382 bng 15 250 50 0 empty empty empty 17 7 0 10 -262144 -1
-1;
#X text 45 382 SYNC;
#X obj 472 411 list;
#X obj 474 457 s osc;
#X obj 473 433 oscformat /sync;
#X obj 24 430 hsl 200 15 0 10 0 0 empty empty empty -2 -8 0 10 -232576
-1 -1 5200 1;
#X floatatom 195 410 5 0 0 0 - - -;
#X obj 286 441 list;
#X obj 285 484 s osc;
#X text 19 407 PIXEL ORDER;
#X obj 286 462 oscformat /pixelorder;
#X obj 28 476 hsl 200 15 1 200000 1 0 empty empty empty -2 -8 0 10
-232576 -1 -1 17900 1;
#X floatatom 164 459 10 0 0 0 - - -;
#X obj 286 531 list;
#X obj 285 574 s osc;
#X text 19 457 RPM;
#X obj 286 552 oscformat /basespeed;
#X msg 223 133 60000;
#X obj 156 283 i;
#X connect 0 0 5 0;
#X connect 1 0 41 0;
#X connect 2 0 10 0;
#X connect 4 0 9 0;
#X connect 5 0 11 0;
#X connect 8 0 12 0;
#X connect 9 0 21 0;
#X connect 10 0 8 0;
#X connect 11 0 22 0;
#X connect 12 0 13 0;
#X connect 16 0 17 0;
#X connect 17 0 18 0;
#X connect 17 0 19 0;
#X connect 17 0 20 0;
#X connect 17 0 40 0;
#X connect 18 0 0 0;
#X connect 19 0 1 0;
#X connect 20 0 2 0;
#X connect 21 0 15 0;
#X connect 22 0 14 0;
#X connect 23 0 25 0;
#X connect 25 0 27 0;
#X connect 27 0 26 0;
#X connect 28 0 29 0;
#X connect 29 0 30 0;
#X connect 30 0 33 0;
#X connect 33 0 31 0;
#X connect 34 0 35 0;
#X connect 35 0 36 0;
#X connect 36 0 39 0;
#X connect 39 0 37 0;
#X connect 40 0 34 0;
#X connect 41 0 4 0;
#X coords 0 0 1 1 250 350 2 0 200;
