#N canvas 532 184 712 567 10;
#X obj 20 245 hsl 200 15 -5000 5000 0 0 empty empty empty -2 -8 0 10
-204800 -1 -1 9950 1;
#X obj 21 315 hsl 200 15 1 500 0 0 empty empty empty -2 -8 0 10 -232576
-1 -1 11924 1;
#X obj 22 387 hsl 200 15 0 100 0 0 empty empty empty -2 -8 0 10 -262144
-1 -1 10945 1;
#X text 16 292 NUM LEDS;
#X floatatom 192 295 5 0 0 0 - - -;
#X floatatom 189 227 5 0 0 0 - - -;
#X text 16 224 OFFSET (ms);
#X text 17 365 MASTER OPACITY;
#X obj 274 381 list;
#X obj 317 300 list;
#X floatatom 198 370 5 0 0 0 - - -;
#X obj 274 228 list;
#X obj 275 403 oscformat /opacity;
#X obj 276 427 s osc;
#X obj 274 271 s osc;
#X obj 316 343 s osc;
#X obj 10 23 loadbang;
#X obj 22 91 bng 15 250 50 0 empty empty empty 17 7 0 10 -262144 -1
-1;
#X msg 42 130 0;
#X msg 87 124 300;
#X msg 148 122 100;
#X obj 317 322 oscformat /length;
#X obj 274 249 oscformat /nudge;
#X obj 22 432 bng 15 250 50 0 empty empty empty 17 7 0 10 -262144 -1
-1;
#X text 45 432 SYNC;
#X obj 276 472 list;
#X obj 278 518 s osc;
#X obj 277 494 oscformat /sync;
#X connect 0 0 5 0;
#X connect 1 0 4 0;
#X connect 2 0 10 0;
#X connect 4 0 9 0;
#X connect 5 0 11 0;
#X connect 8 0 12 0;
#X connect 9 0 21 0;
#X connect 10 0 8 0;
#X connect 11 0 22 0;
#X connect 12 0 13 0;
#X connect 16 0 17 0;
#X connect 17 0 18 0;
#X connect 17 0 19 0;
#X connect 17 0 20 0;
#X connect 18 0 0 0;
#X connect 19 0 1 0;
#X connect 20 0 2 0;
#X connect 21 0 15 0;
#X connect 22 0 14 0;
#X connect 23 0 25 0;
#X connect 25 0 27 0;
#X connect 27 0 26 0;
#X coords 0 0 1 1 250 300 2 0 200;
