#N canvas 389 0 1291 1028 10;
#X obj 227 290 hsl 200 15 0 255 0 0 empty empty empty -2 -8 0 10 -260097
-1 -1 7804 1;
#X obj 227 314 hsl 200 15 0 255 0 0 empty empty empty -2 -8 0 10 -4034
-1 -1 0 1;
#X obj 226 340 hsl 200 15 0 255 0 0 empty empty empty -2 -8 0 10 -4032
-1 -1 7804 1;
#X floatatom 311 272 5 0 0 0 - - -;
#X floatatom 349 271 5 0 0 0 - - -;
#X floatatom 387 273 5 0 0 0 - - -;
#X text 220 268 COLOR;
#X obj 224 235 hsl 200 15 0 100 0 0 empty empty empty -2 -8 0 10 -262144
-1 -1 19900 1;
#X floatatom 392 215 5 0 0 0 - - -;
#X text 219 214 OPACITY;
#X obj 226 485 hsl 200 15 0 100 0 0 empty empty empty -2 -8 0 10 -228856
-1 -1 995 1;
#X obj 226 511 hsl 200 15 0 100 0 0 empty empty empty -2 -8 0 10 -228856
-1 -1 2985 1;
#X floatatom 344 466 5 0 0 0 - - -;
#X floatatom 394 467 5 0 0 0 - - -;
#X obj 225 609 hsl 200 15 -1000 1000 0 0 empty empty empty -2 -8 0
10 -204800 -1 -1 10049 1;
#X floatatom 394 590 5 0 0 0 - - -;
#X obj 225 395 hsl 200 15 1 100 0 0 empty empty empty -2 -8 0 10 -228856
-1 -1 804 1;
#X floatatom 392 376 5 0 0 0 - - -;
#X text 221 378 RADIUS;
#X obj 225 436 hsl 200 15 1 100 0 0 empty empty empty -2 -8 0 10 -228856
-1 -1 201 1;
#X floatatom 391 417 5 0 0 0 - - -;
#X text 222 419 REPEAT;
#X obj 226 557 hsl 200 15 0 200 0 0 empty empty empty -2 -8 0 10 -228856
-1 -1 9950 1;
#X floatatom 394 537 5 0 0 0 - - -;
#X text 219 539 GAMMA;
#X text 217 588 SPEED;
#X obj 501 862 s osc;
#X obj 501 839 oscformat /dummy $i;
#X obj 500 642 bng 15 250 50 0 empty empty empty 17 7 0 10 -262144
-1 -1;
#X obj 27 81 bng 15 250 50 0 empty empty empty 17 7 0 10 -262144 -1
-1;
#X obj 26 53 loadbang;
#X msg 80 214 100;
#X msg 61 284 100;
#X msg 67 319 0;
#X msg 55 360 100;
#X msg 53 409 5;
#X msg 53 451 2;
#X msg 57 514 5;
#X msg 54 552 15;
#X msg 59 609 100;
#X msg 55 676 10;
#X obj 489 811 list;
#X obj 498 668 t b b b b;
#X obj 518 718 f \$1;
#X msg 541 737 symbol /speed;
#X msg 500 695 symbol /layer;
#X obj 501 764 pack s f s;
#X msg 501 788 set \$1\$2\$3;
#X obj 501 551 s osc;
#X obj 501 528 oscformat /dummy $i;
#X obj 500 331 bng 15 250 50 0 empty empty empty 17 7 0 10 -262144
-1 -1;
#X obj 489 500 list;
#X obj 498 357 t b b b b;
#X obj 518 407 f \$1;
#X msg 500 384 symbol /layer;
#X obj 501 453 pack s f s;
#X msg 501 477 set \$1\$2\$3;
#X obj 657 555 s osc;
#X obj 657 532 oscformat /dummy $i;
#X obj 656 335 bng 15 250 50 0 empty empty empty 17 7 0 10 -262144
-1 -1;
#X obj 645 504 list;
#X obj 654 361 t b b b b;
#X obj 674 411 f \$1;
#X msg 656 388 symbol /layer;
#X obj 657 457 pack s f s;
#X msg 657 481 set \$1\$2\$3;
#X obj 495 255 s osc;
#X obj 495 232 oscformat /dummy $i;
#X obj 494 35 bng 15 250 50 0 empty empty empty 17 7 0 10 -262144 -1
-1;
#X obj 483 204 list;
#X obj 492 61 t b b b b;
#X obj 512 111 f \$1;
#X msg 494 88 symbol /layer;
#X obj 495 157 pack s f s;
#X msg 495 181 set \$1\$2\$3;
#X obj 716 258 s osc;
#X obj 716 235 oscformat /dummy $i;
#X obj 715 38 bng 15 250 50 0 empty empty empty 17 7 0 10 -262144 -1
-1;
#X obj 704 207 list;
#X obj 713 64 t b b b b;
#X obj 733 114 f \$1;
#X msg 715 91 symbol /layer;
#X obj 716 160 pack s f s;
#X msg 716 184 set \$1\$2\$3;
#X obj 876 258 s osc;
#X obj 876 235 oscformat /dummy $i;
#X obj 875 38 bng 15 250 50 0 empty empty empty 17 7 0 10 -262144 -1
-1;
#X obj 864 207 list;
#X obj 873 64 t b b b b;
#X obj 893 114 f \$1;
#X msg 875 91 symbol /layer;
#X obj 876 160 pack s f s;
#X msg 876 184 set \$1\$2\$3;
#X obj 1032 260 s osc;
#X obj 1032 237 oscformat /dummy $i;
#X obj 1031 40 bng 15 250 50 0 empty empty empty 17 7 0 10 -262144
-1 -1;
#X obj 1020 209 list;
#X obj 1029 66 t b b b b;
#X obj 1049 116 f \$1;
#X msg 1031 93 symbol /layer;
#X obj 1032 162 pack s f s;
#X msg 1032 186 set \$1\$2\$3;
#X obj 885 547 s osc;
#X obj 885 524 oscformat /dummy $i;
#X obj 884 327 bng 15 250 50 0 empty empty empty 17 7 0 10 -262144
-1 -1;
#X obj 873 496 list;
#X obj 882 353 t b b b b;
#X obj 902 403 f \$1;
#X msg 884 380 symbol /layer;
#X obj 885 449 pack s f s;
#X msg 885 473 set \$1\$2\$3;
#X obj 1041 551 s osc;
#X obj 1041 528 oscformat /dummy $i;
#X obj 1040 331 bng 15 250 50 0 empty empty empty 17 7 0 10 -262144
-1 -1;
#X obj 1029 500 list;
#X obj 1038 357 t b b b b;
#X obj 1058 407 f \$1;
#X msg 1040 384 symbol /layer;
#X obj 1041 453 pack s f s;
#X msg 1041 477 set \$1\$2\$3;
#X obj 665 861 s osc;
#X obj 665 838 oscformat /dummy $i;
#X obj 664 641 bng 15 250 50 0 empty empty empty 17 7 0 10 -262144
-1 -1;
#X obj 653 810 list;
#X obj 662 667 t b b b b;
#X obj 682 717 f \$1;
#X msg 664 694 symbol /layer;
#X obj 665 763 pack s f s;
#X msg 665 787 set \$1\$2\$3;
#X msg 705 736 symbol /gamma;
#X obj 714 14 loadbang;
#X obj 492 11 loadbang;
#X obj 874 14 loadbang;
#X obj 493 297 loadbang;
#X obj 659 605 loadbang;
#X obj 1028 17 loadbang;
#X obj 651 307 loadbang;
#X obj 879 300 loadbang;
#X obj 1037 304 loadbang;
#X obj 492 614 loadbang;
#X msg 535 130 symbol /opacity;
#X msg 756 133 symbol /red;
#X msg 916 133 symbol /green;
#X msg 1072 135 symbol /blue;
#X msg 541 426 symbol /radius;
#X msg 697 430 symbol /repeat;
#X msg 925 422 symbol /feather1;
#X msg 1081 426 symbol /feather2;
#X obj 361 416 i;
#X text 223 469 FADE;
#X obj 357 374 i;
#X obj 224 661 hsl 200 15 -5000 5000 0 0 empty empty empty -2 -8 0
10 -191407 -1 -1 7650 1;
#X floatatom 376 640 7 0 0 0 - - -;
#X text 217 643 OFFSET;
#X obj 849 862 s osc;
#X obj 849 839 oscformat /dummy $i;
#X obj 848 642 bng 15 250 50 0 empty empty empty 17 7 0 10 -262144
-1 -1;
#X obj 837 811 list;
#X obj 846 668 t b b b b;
#X obj 866 718 f \$1;
#X msg 848 695 symbol /layer;
#X obj 849 764 pack s f s;
#X msg 849 788 set \$1\$2\$3;
#X obj 843 606 loadbang;
#X msg 889 737 symbol /offset;
#X msg 59 760 0;
#X connect 0 0 3 0;
#X connect 1 0 4 0;
#X connect 2 0 5 0;
#X connect 3 0 78 0;
#X connect 4 0 87 0;
#X connect 5 0 96 0;
#X connect 7 0 8 0;
#X connect 8 0 69 0;
#X connect 10 0 12 0;
#X connect 11 0 13 0;
#X connect 12 0 105 0;
#X connect 13 0 114 0;
#X connect 14 0 15 0;
#X connect 15 0 41 0;
#X connect 16 0 150 0;
#X connect 17 0 51 0;
#X connect 19 0 148 0;
#X connect 20 0 60 0;
#X connect 22 0 23 0;
#X connect 23 0 123 0;
#X connect 27 0 26 0;
#X connect 28 0 42 0;
#X connect 29 0 31 0;
#X connect 29 0 32 0;
#X connect 29 0 33 0;
#X connect 29 0 34 0;
#X connect 29 0 35 0;
#X connect 29 0 36 0;
#X connect 29 0 37 0;
#X connect 29 0 38 0;
#X connect 29 0 39 0;
#X connect 29 0 40 0;
#X connect 29 0 165 0;
#X connect 30 0 29 0;
#X connect 31 0 7 0;
#X connect 32 0 0 0;
#X connect 33 0 1 0;
#X connect 34 0 2 0;
#X connect 35 0 16 0;
#X connect 36 0 19 0;
#X connect 37 0 10 0;
#X connect 38 0 11 0;
#X connect 39 0 22 0;
#X connect 40 0 14 0;
#X connect 41 0 27 0;
#X connect 42 1 45 0;
#X connect 42 2 43 0;
#X connect 42 3 44 0;
#X connect 43 0 46 1;
#X connect 44 0 46 2;
#X connect 45 0 46 0;
#X connect 46 0 47 0;
#X connect 47 0 27 0;
#X connect 49 0 48 0;
#X connect 50 0 52 0;
#X connect 51 0 49 0;
#X connect 52 1 54 0;
#X connect 52 2 53 0;
#X connect 52 3 144 0;
#X connect 53 0 55 1;
#X connect 54 0 55 0;
#X connect 55 0 56 0;
#X connect 56 0 49 0;
#X connect 58 0 57 0;
#X connect 59 0 61 0;
#X connect 60 0 58 0;
#X connect 61 1 63 0;
#X connect 61 2 62 0;
#X connect 61 3 145 0;
#X connect 62 0 64 1;
#X connect 63 0 64 0;
#X connect 64 0 65 0;
#X connect 65 0 58 0;
#X connect 67 0 66 0;
#X connect 68 0 70 0;
#X connect 69 0 67 0;
#X connect 70 1 72 0;
#X connect 70 2 71 0;
#X connect 70 3 140 0;
#X connect 71 0 73 1;
#X connect 72 0 73 0;
#X connect 73 0 74 0;
#X connect 74 0 67 0;
#X connect 76 0 75 0;
#X connect 77 0 79 0;
#X connect 78 0 76 0;
#X connect 79 1 81 0;
#X connect 79 2 80 0;
#X connect 79 3 141 0;
#X connect 80 0 82 1;
#X connect 81 0 82 0;
#X connect 82 0 83 0;
#X connect 83 0 76 0;
#X connect 85 0 84 0;
#X connect 86 0 88 0;
#X connect 87 0 85 0;
#X connect 88 1 90 0;
#X connect 88 2 89 0;
#X connect 88 3 142 0;
#X connect 89 0 91 1;
#X connect 90 0 91 0;
#X connect 91 0 92 0;
#X connect 92 0 85 0;
#X connect 94 0 93 0;
#X connect 95 0 97 0;
#X connect 96 0 94 0;
#X connect 97 1 99 0;
#X connect 97 2 98 0;
#X connect 97 3 143 0;
#X connect 98 0 100 1;
#X connect 99 0 100 0;
#X connect 100 0 101 0;
#X connect 101 0 94 0;
#X connect 103 0 102 0;
#X connect 104 0 106 0;
#X connect 105 0 103 0;
#X connect 106 1 108 0;
#X connect 106 2 107 0;
#X connect 106 3 146 0;
#X connect 107 0 109 1;
#X connect 108 0 109 0;
#X connect 109 0 110 0;
#X connect 110 0 103 0;
#X connect 112 0 111 0;
#X connect 113 0 115 0;
#X connect 114 0 112 0;
#X connect 115 1 117 0;
#X connect 115 2 116 0;
#X connect 115 3 147 0;
#X connect 116 0 118 1;
#X connect 117 0 118 0;
#X connect 118 0 119 0;
#X connect 119 0 112 0;
#X connect 121 0 120 0;
#X connect 122 0 124 0;
#X connect 123 0 121 0;
#X connect 124 1 126 0;
#X connect 124 2 125 0;
#X connect 124 3 129 0;
#X connect 125 0 127 1;
#X connect 126 0 127 0;
#X connect 127 0 128 0;
#X connect 128 0 121 0;
#X connect 129 0 127 2;
#X connect 130 0 77 0;
#X connect 131 0 68 0;
#X connect 132 0 86 0;
#X connect 133 0 50 0;
#X connect 134 0 122 0;
#X connect 135 0 95 0;
#X connect 136 0 59 0;
#X connect 137 0 104 0;
#X connect 138 0 113 0;
#X connect 139 0 28 0;
#X connect 140 0 73 2;
#X connect 141 0 82 2;
#X connect 142 0 91 2;
#X connect 143 0 100 2;
#X connect 144 0 55 2;
#X connect 145 0 64 2;
#X connect 146 0 109 2;
#X connect 147 0 118 2;
#X connect 148 0 20 0;
#X connect 150 0 17 0;
#X connect 151 0 152 0;
#X connect 152 0 157 0;
#X connect 155 0 154 0;
#X connect 156 0 158 0;
#X connect 157 0 155 0;
#X connect 158 1 160 0;
#X connect 158 2 159 0;
#X connect 158 3 164 0;
#X connect 159 0 161 1;
#X connect 160 0 161 0;
#X connect 161 0 162 0;
#X connect 162 0 155 0;
#X connect 163 0 156 0;
#X connect 164 0 161 2;
#X connect 165 0 151 0;
#X coords 0 -1 1 1 250 500 1 200 200;
